<svg width="236" height="222" viewBox="0 0 236 222" fill="none" xmlns="http://www.w3.org/2000/svg">
<path d="M235.741 209.629L192.138 166.711C206.294 150.125 214.816 128.737 214.816 105.384V105.346H197.799V105.384C197.799 119.065 194.248 131.929 188.011 143.134L149.681 105.404L210.326 45.7094L224.345 0.523811L178.502 14.3747L117.857 74.0688L57.2118 14.3824L11.3649 0.523811L25.3801 45.7055L86.0252 105.4L47.6948 143.13C41.4545 131.921 37.9037 119.065 37.9037 105.38V105.342H20.8858V105.38C20.8858 128.745 29.4202 150.144 43.5803 166.727L0 209.629L12.0343 221.476L55.6341 178.562C71.736 191.824 92.2773 200.05 114.745 200.75V183.998C102.021 183.522 90.0615 180.109 79.5344 174.449L117.849 136.734L156.164 174.449C145.641 180.109 133.681 183.522 120.958 183.998V200.75C143.437 200.054 163.982 191.821 180.084 178.546L223.695 221.476L235.734 209.629H235.738H235.741ZM182.464 20.8629L205.487 13.9065L131.109 87.1189L123.134 79.2687L182.468 20.8629H182.464ZM91.2633 110.631L99.2144 118.508L58.7386 158.346C56.1861 155.592 53.8372 152.659 51.6997 149.568L91.2633 110.627V110.631ZM31.9688 41.8133L24.9103 19.06L171.69 163.539C168.872 166.065 165.873 168.394 162.71 170.51L31.9688 41.8133Z" fill="#29100A"/>
<path d="M31.9689 41.8133L24.9104 19.06L171.69 163.539C168.872 166.065 165.873 168.394 162.71 170.51L31.9689 41.8133Z" fill="#F9F7E7"/>
<path d="M182.464 20.8629L205.487 13.9065L131.109 87.1189L123.134 79.2687L182.468 20.8629H182.464Z" fill="#F9F7E7"/>
<path d="M91.2672 110.631L99.2183 118.508L58.7425 158.346C56.19 155.592 53.8411 152.659 51.7036 149.568L91.2672 110.627V110.631Z" fill="#F9F7E7"/>
</svg>
